<svg id="svg" version="1.1" 
    xmlns="http://www.w3.org/2000/svg" 
    xmlns:xlink="http://www.w3.org/1999/xlink" width="400" height="400" viewBox="0, 0, 400,400">
    <g id="svg">
        <path id="path0" d="M188.581 40.609 C 188.131 40.928,186.871 41.364,185.781 41.576 C 181.756 42.361,176.517 43.570,173.600 44.388 C 166.021 46.512,166.045 46.504,161.904 48.353 C 160.862 48.819,159.892 49.200,159.750 49.200 C 159.456 49.200,149.420 54.163,148.203 54.911 C 136.015 62.395,122.195 74.307,115.788 82.851 C 115.562 83.153,113.844 85.380,111.970 87.800 C 106.086 95.401,101.608 102.301,96.915 111.000 C 94.337 115.778,89.969 124.980,89.400 126.832 C 89.236 127.364,88.968 127.980,88.804 128.200 C 88.640 128.420,88.133 129.693,87.678 131.030 C 87.222 132.366,86.583 134.166,86.257 135.030 C 83.260 142.977,80.134 155.064,77.473 169.000 C 76.796 172.545,75.784 172.877,72.466 170.645 C 68.477 167.960,66.201 167.967,65.175 170.666 C 64.695 171.929,64.948 172.346,67.336 174.220 C 69.878 176.215,70.084 177.128,68.321 178.588 C 61.041 184.620,57.074 190.225,54.581 198.000 C 52.922 203.172,53.011 212.332,54.761 216.600 C 59.098 227.173,63.989 232.473,74.364 237.840 C 77.295 239.357,78.531 240.834,79.181 243.600 C 79.583 245.312,81.029 250.514,82.183 254.400 C 82.886 256.769,85.521 264.276,86.184 265.800 C 86.471 266.460,86.932 267.720,87.209 268.600 C 87.485 269.480,88.317 271.518,89.056 273.129 C 89.795 274.740,90.400 276.123,90.400 276.202 C 90.400 277.303,99.547 294.684,102.713 299.600 C 104.745 302.755,107.749 307.332,108.096 307.800 C 109.432 309.604,113.759 315.187,114.399 315.934 C 114.840 316.448,115.200 317.033,115.200 317.234 C 115.200 317.435,115.345 317.600,115.521 317.600 C 115.698 317.600,117.183 319.223,118.821 321.207 C 121.315 324.227,125.526 328.560,134.690 337.534 C 138.649 341.411,152.626 351.658,161.800 357.408 C 164.689 359.219,172.200 363.024,174.458 363.821 C 175.378 364.145,176.326 364.559,176.565 364.740 C 176.804 364.921,178.080 365.383,179.400 365.766 C 180.720 366.150,182.250 366.630,182.800 366.833 C 190.943 369.838,204.891 369.892,215.356 366.959 C 234.846 361.497,261.917 342.320,280.026 321.147 C 281.600 319.306,283.274 317.350,283.746 316.800 C 284.219 316.250,285.318 314.810,286.189 313.600 C 287.061 312.390,287.880 311.310,288.011 311.200 C 288.452 310.829,293.385 303.704,295.392 300.540 C 298.737 295.266,301.257 290.754,304.408 284.400 C 305.815 281.561,305.976 281.243,306.384 280.500 C 306.595 280.115,307.336 278.450,308.030 276.800 C 308.725 275.150,309.696 272.900,310.189 271.800 C 312.398 266.871,317.398 251.943,319.178 244.961 C 320.106 241.323,322.489 238.061,324.273 237.986 C 324.453 237.979,325.320 237.625,326.200 237.200 C 327.080 236.775,328.010 236.421,328.267 236.414 C 328.523 236.406,328.793 236.258,328.867 236.085 C 328.940 235.912,329.900 235.250,331.000 234.613 C 341.851 228.335,348.232 211.181,344.322 198.800 C 341.421 189.616,336.433 182.225,330.680 178.585 C 327.688 176.692,327.757 176.140,331.303 173.601 C 334.021 171.655,334.312 170.432,332.478 168.675 C 330.825 167.091,329.604 167.298,326.934 169.616 C 323.444 172.647,321.531 171.977,320.790 167.465 C 319.850 161.744,318.031 153.674,316.402 148.000 C 315.486 144.810,314.590 141.660,314.412 141.000 C 313.736 138.504,310.085 128.713,307.997 123.800 C 305.780 118.584,301.330 109.680,299.199 106.198 C 298.320 104.761,297.600 103.500,297.600 103.396 C 297.600 102.996,292.580 95.302,291.029 93.323 C 290.133 92.181,288.860 90.490,288.200 89.565 C 279.796 77.792,263.014 62.167,252.300 56.141 C 251.255 55.554,250.400 54.921,250.400 54.736 C 250.400 54.551,250.115 54.400,249.767 54.400 C 249.419 54.400,248.114 53.807,246.867 53.082 C 239.647 48.883,232.385 46.157,219.600 42.845 C 217.070 42.190,213.920 41.330,212.600 40.935 C 209.299 39.947,189.885 39.683,188.581 40.609 M215.530 48.135 C 219.793 48.879,220.770 49.132,227.482 51.236 C 235.532 53.759,241.954 56.626,248.112 60.446 C 249.845 61.520,251.384 62.402,251.532 62.404 C 251.774 62.408,254.703 64.520,257.763 66.897 C 259.507 68.252,264.884 72.841,265.825 73.778 C 266.279 74.230,267.269 75.148,268.025 75.817 C 269.465 77.092,272.909 80.929,276.265 85.000 C 280.287 89.877,280.530 89.769,268.600 88.421 C 247.742 86.064,234.290 93.512,229.626 110.000 C 226.005 122.802,218.485 127.003,199.200 126.997 C 179.741 126.992,171.174 121.543,169.018 107.800 C 166.549 92.069,141.547 83.061,121.486 90.674 C 119.802 91.313,119.527 91.328,119.192 90.800 C 118.654 89.951,118.676 89.884,119.908 88.576 C 120.518 87.929,122.041 86.140,123.294 84.600 C 129.460 77.020,138.687 68.620,146.461 63.508 C 154.433 58.266,158.010 56.333,164.400 53.810 C 166.490 52.985,168.560 52.161,169.000 51.978 C 171.293 51.027,178.899 49.058,182.800 48.407 C 184.230 48.168,186.300 47.814,187.400 47.620 C 190.819 47.017,211.263 47.391,215.530 48.135 M267.200 93.393 C 275.010 94.558,280.002 96.551,285.827 100.829 C 288.723 102.956,292.771 107.268,294.944 110.541 C 299.602 117.560,308.104 138.354,311.077 150.000 C 316.842 172.589,317.188 176.683,313.519 178.916 C 313.014 179.224,311.250 180.319,309.600 181.349 C 307.950 182.379,306.241 183.442,305.802 183.711 C 305.362 183.980,304.372 184.664,303.602 185.232 C 302.831 185.799,301.210 186.840,300.000 187.545 C 296.854 189.377,296.225 189.769,296.000 190.040 C 295.798 190.283,292.541 192.426,291.800 192.804 C 291.580 192.916,289.560 194.221,287.312 195.704 C 281.925 199.256,281.605 199.243,280.213 195.400 C 279.815 194.300,278.974 192.283,278.344 190.917 C 277.715 189.551,277.200 188.261,277.200 188.050 C 277.200 187.839,277.053 187.607,276.872 187.533 C 276.692 187.460,275.813 186.320,274.919 185.000 C 272.273 181.092,264.559 174.400,262.702 174.400 C 262.404 174.400,261.989 174.248,261.780 174.062 C 261.186 173.534,257.250 172.096,254.542 171.416 C 249.763 170.218,240.200 170.829,236.200 172.589 C 235.540 172.879,234.010 173.530,232.800 174.035 C 230.828 174.858,229.833 175.431,226.544 177.636 C 225.211 178.530,221.954 181.700,221.000 183.032 C 220.560 183.646,219.824 184.610,219.364 185.174 C 217.852 187.028,216.518 189.732,214.814 194.400 C 211.908 202.363,211.276 202.700,199.400 202.632 C 188.529 202.569,186.001 200.888,183.365 191.971 C 182.752 189.897,181.924 187.771,181.525 187.246 C 181.126 186.721,180.800 186.129,180.800 185.930 C 180.800 184.155,173.749 177.344,169.800 175.304 C 156.920 168.650,142.900 169.389,132.035 177.295 C 130.603 178.337,129.334 179.237,129.216 179.295 C 127.131 180.312,121.886 187.865,120.037 192.514 C 117.055 200.014,116.667 200.064,107.905 194.080 C 105.102 192.166,101.824 189.970,100.619 189.200 C 95.001 185.609,89.166 182.000,88.977 182.000 C 88.661 182.000,86.349 180.348,85.067 179.208 C 82.178 176.637,82.162 175.055,84.890 161.400 C 87.925 146.209,94.803 125.742,98.275 121.569 C 98.564 121.221,98.800 120.807,98.800 120.647 C 98.800 119.248,106.969 108.460,110.195 105.600 C 113.956 102.265,116.821 99.864,117.556 99.431 C 129.482 92.404,142.726 91.515,153.819 96.997 C 160.479 100.287,162.889 103.846,164.782 113.183 C 165.868 118.541,169.495 123.702,174.000 126.298 C 174.990 126.869,176.070 127.552,176.400 127.816 C 176.730 128.080,178.080 128.685,179.400 129.159 C 180.720 129.633,182.160 130.174,182.600 130.362 C 188.360 132.817,203.157 133.497,211.000 131.667 C 225.984 128.170,232.185 122.837,234.414 111.530 C 236.264 102.142,240.026 98.239,250.535 94.805 C 256.028 93.010,261.520 92.545,267.200 93.393 M159.994 176.852 C 183.767 182.298,189.256 216.060,168.598 229.783 C 160.655 235.059,146.857 236.827,141.800 233.216 C 141.580 233.059,140.365 232.520,139.100 232.019 C 137.835 231.517,136.800 230.960,136.800 230.780 C 136.800 230.601,136.430 230.337,135.979 230.193 C 133.591 229.436,127.463 222.317,125.449 217.963 C 121.979 210.462,121.919 199.384,125.308 192.267 C 126.741 189.257,131.014 183.542,132.376 182.813 C 132.815 182.578,133.662 181.934,134.258 181.381 C 139.236 176.768,150.767 174.739,159.994 176.852 M254.251 176.618 C 273.035 180.074,282.897 203.162,272.791 220.024 C 263.643 235.288,245.089 239.472,230.400 229.583 C 215.872 219.802,213.257 196.568,225.381 185.000 C 231.201 179.447,237.103 176.734,245.200 175.891 C 247.118 175.691,250.835 175.990,254.251 176.618 M75.200 187.839 C 74.703 202.637,75.043 218.216,76.002 224.600 C 77.342 233.521,76.896 233.932,70.590 229.593 C 62.477 224.011,57.790 210.651,60.435 200.646 C 62.082 194.418,62.933 192.402,65.000 189.840 C 67.686 186.509,72.596 182.406,73.900 182.402 C 74.175 182.401,74.400 182.205,74.400 181.967 C 74.400 181.728,74.625 181.611,74.900 181.706 C 75.282 181.838,75.353 183.283,75.200 187.839 M316.400 183.591 C 317.231 184.116,317.543 188.199,317.843 202.491 C 318.229 220.860,316.764 232.527,312.127 248.000 C 309.408 257.075,308.222 260.638,307.006 263.400 C 306.715 264.060,305.641 266.729,304.619 269.331 C 302.647 274.351,298.098 283.953,295.725 288.105 C 292.059 294.519,290.442 297.163,287.496 301.560 C 283.577 307.411,282.663 308.628,276.267 316.511 C 271.740 322.091,262.999 330.862,257.590 335.254 C 249.126 342.126,245.060 345.200,244.437 345.200 C 244.218 345.200,243.896 345.433,243.720 345.717 C 243.429 346.186,240.772 348.007,236.019 350.993 C 232.518 353.193,224.551 357.122,221.800 358.006 C 220.260 358.500,218.640 359.052,218.200 359.232 C 207.231 363.721,188.687 363.693,177.700 359.170 C 177.205 358.967,176.395 358.640,175.900 358.445 C 165.982 354.529,156.059 347.948,147.788 339.800 C 146.272 338.306,142.282 335.174,138.600 332.586 C 133.471 328.981,129.035 324.476,122.465 316.200 C 120.894 314.220,118.931 311.798,118.104 310.819 C 117.277 309.839,116.115 308.309,115.522 307.419 C 114.929 306.528,113.868 304.990,113.165 304.000 C 108.385 297.273,104.843 291.667,101.284 285.200 C 99.500 281.957,95.811 274.588,95.268 273.179 C 94.975 272.421,94.384 271.136,93.956 270.324 C 91.112 264.941,84.591 244.064,83.547 237.000 C 83.352 235.680,83.006 233.610,82.778 232.400 C 79.947 217.348,79.483 184.576,82.094 184.076 C 82.749 183.951,87.647 186.655,87.933 187.300 C 88.007 187.465,88.294 187.600,88.571 187.600 C 88.849 187.600,89.402 187.960,89.800 188.400 C 90.198 188.840,90.673 189.200,90.854 189.200 C 91.202 189.200,92.906 190.256,100.400 195.119 C 102.930 196.760,105.900 198.683,107.000 199.392 C 114.838 204.443,116.777 205.764,116.921 206.156 C 117.011 206.400,117.309 207.860,117.583 209.400 C 118.466 214.360,122.948 225.600,124.044 225.600 C 124.210 225.600,124.446 225.916,124.569 226.303 C 125.309 228.634,131.808 233.944,136.846 236.334 C 144.581 240.003,157.468 240.355,165.200 237.107 C 174.609 233.156,181.213 225.831,184.410 215.800 C 186.967 207.776,186.929 207.803,196.072 207.400 C 208.231 206.863,212.834 209.357,215.854 218.115 C 220.221 230.777,226.043 235.980,239.045 238.838 C 242.106 239.511,251.629 239.550,254.100 238.900 C 255.145 238.625,256.849 238.186,257.886 237.924 C 261.118 237.108,265.082 234.966,269.124 231.850 C 272.585 229.183,276.373 224.124,278.369 219.501 C 279.675 216.476,279.983 215.368,280.802 210.749 C 281.564 206.455,284.027 202.765,287.319 200.985 C 290.224 199.414,290.447 199.274,297.800 194.440 C 300.660 192.559,303.810 190.586,304.800 190.054 C 305.790 189.522,306.690 188.960,306.800 188.804 C 306.910 188.649,308.260 187.734,309.800 186.771 C 311.340 185.808,313.210 184.611,313.956 184.110 C 315.484 183.084,315.569 183.066,316.400 183.591 M328.800 185.384 C 343.297 195.279,342.413 221.787,327.326 229.597 C 326.267 230.146,325.100 230.835,324.733 231.129 C 324.366 231.424,323.646 231.605,323.133 231.532 C 321.984 231.369,321.979 230.928,323.010 221.400 C 323.874 213.423,324.040 191.074,323.265 187.062 C 322.405 182.613,324.022 182.123,328.800 185.384 M146.400 197.174 C 142.181 198.883,142.069 203.415,146.200 205.291 C 152.511 208.159,161.200 205.736,161.200 201.109 C 161.200 197.011,152.507 194.700,146.400 197.174 M234.000 197.069 C 229.316 199.090,229.475 204.248,234.265 205.638 C 236.634 206.326,243.632 206.339,245.652 205.659 C 249.829 204.252,249.974 199.220,245.894 197.246 C 243.695 196.181,236.312 196.072,234.000 197.069 M166.109 286.884 C 164.779 287.526,164.628 288.624,165.609 290.516 C 180.120 318.504,218.501 318.429,232.808 290.384 C 233.867 288.309,233.481 287.036,231.687 286.677 C 229.338 286.208,228.380 286.832,226.392 290.131 C 224.067 293.990,221.802 296.350,217.000 299.918 C 210.491 304.754,200.656 306.813,192.800 304.982 C 189.577 304.232,184.940 302.450,184.346 301.735 C 184.102 301.441,183.734 301.200,183.530 301.200 C 182.211 301.200,176.429 295.676,172.853 291.000 C 169.433 286.527,168.292 285.831,166.109 286.884 M185.000 325.200 C 184.856 325.433,185.263 325.600,185.976 325.600 C 186.649 325.600,187.200 325.420,187.200 325.200 C 187.200 324.980,186.761 324.800,186.224 324.800 C 185.687 324.800,185.136 324.980,185.000 325.200 " stroke="#000" fill="#000" stroke-width="8" fill-rule="evenodd"></path>
    </g>
</svg>